<svg width="189" height="41" viewBox="0 0 189 41" fill="none" xmlns="http://www.w3.org/2000/svg">
<g filter="url(#filter0_d_6687_2236)">
<path d="M30.1719 23.5462H19.83V19.8527H30.1719V23.5462Z" fill="#DCAE96"/>
<path d="M48.3951 22.7613H48.6721L52.4579 8.4951C53.2582 5.41716 54.4894 3.30878 56.1515 2.16994C57.8136 1.03111 60.3221 0.46169 63.677 0.46169V32.78H59.3371V5.3556C58.5369 5.69418 57.9213 6.17126 57.4904 6.78685C57.0902 7.40243 56.7055 8.32581 56.3361 9.55699L50.565 29.3635H46.5021L40.6848 9.55699C40.3155 8.29503 39.9307 7.37165 39.5306 6.78685C39.1305 6.17126 38.5303 5.69418 37.73 5.3556V32.78H33.3901V0.46169C36.7451 0.46169 39.2382 1.0465 40.8695 2.21611C42.5316 3.35495 43.7782 5.44794 44.6092 8.4951L48.3951 22.7613Z" fill="#DCAE96"/>
<path d="M72.2444 32.78H68.1353V12.4656C68.1353 9.14146 69.1972 6.30976 71.321 3.97054C73.4756 1.6313 76.2457 0.46169 79.6314 0.46169H90.2041V32.78H85.8643V4.52456H79.6314C77.3845 4.52456 75.584 5.18632 74.2297 6.50983C72.9061 7.83334 72.2444 9.94173 72.2444 12.835V16.7594C73.968 14.9434 76.4304 14.0354 79.6314 14.0354H83.8328V18.0983H79.6314C77.8462 18.0983 76.3842 18.3137 75.2454 18.7446C74.1373 19.1755 73.137 19.9142 72.2444 20.9607V32.78Z" fill="#DCAE96"/>
<path d="M94.9164 32.78V11.7731C94.9164 8.0488 95.8244 5.15554 97.6403 3.09333C99.4871 1.03111 102.103 0 105.489 0C108.906 0 111.522 0.831042 113.338 2.49313C115.185 4.15521 116.108 6.49444 116.108 9.51082C116.108 11.4499 115.646 13.0351 114.723 14.2662C113.799 15.4974 112.23 16.4669 110.014 17.1749V17.3595C112.322 18.2521 113.861 19.5295 114.63 21.1916C115.431 22.8229 115.831 25.5315 115.831 29.3173V32.78H111.491V26.8704C111.491 24.5311 110.829 22.7152 109.506 21.4224C108.182 20.0989 106.274 19.4372 103.781 19.4372H101.288V15.3743H103.919C106.874 15.3743 108.921 14.7741 110.06 13.5737C111.199 12.3733 111.768 10.9421 111.768 9.27997C111.768 7.71023 111.199 6.44827 110.06 5.49411C108.952 4.53995 107.474 4.06287 105.628 4.06287C103.504 4.06287 101.903 4.66307 100.826 5.86347C99.7795 7.06386 99.2563 9.03374 99.2563 11.7731V32.78H94.9164Z" fill="#DCAE96"/>
<path d="M139.879 27.0089V32.78H135.447V27.0089C135.447 23.5308 134.678 21.0838 133.139 19.668C131.631 18.2214 128.737 17.4827 124.459 17.4519V32.78H120.119V0.46169H124.459V13.6199C126.737 13.6814 128.091 13.743 128.522 13.8045L135.032 0.46169H139.741L132.446 14.8203C137.402 16.6362 139.879 20.6991 139.879 27.0089Z" fill="#DCAE96"/>
<path d="M162.018 32.78H143.643V8.17191C143.643 5.89424 144.366 4.06287 145.813 2.6778C146.798 1.75442 147.906 1.15423 149.137 0.877211C150.368 0.600197 151.877 0.46169 153.662 0.46169H162.018V4.52456H153.062C149.676 4.52456 147.983 5.94041 147.983 8.77211V14.0354H158.648V18.0983H147.983V28.7171H162.018V32.78Z" fill="#DCAE96"/>
<path d="M163.703 4.52456V0.46169H184.017V4.52456H176.03V32.78H171.69V4.52456H163.703Z" fill="#DCAE96"/>
<path d="M8.01713 9.28V24.28C8.01713 27.28 10.0171 29.3635 13.0171 29.3635H17.5151L18.9124 32.9902H14.0187C12.2335 32.9902 10.7253 32.8517 9.49411 32.5747C8.26294 32.2977 7.15488 31.6975 6.16994 30.7741C4.72331 29.389 4 27.1719 4 25.28L4.00004 8.17191C4.00004 6.28 4.72335 4.06287 6.16998 2.6778C7.15492 1.75442 8.26297 1.15423 9.49415 0.877211C10.7253 0.600197 12.2335 0.46169 14.0187 0.46169H18.9126L17.5151 4.28H13.0171C10.0171 4.28 8.01713 6.28 8.01713 9.28Z" fill="#DCAE96"/>
</g>
<defs>
<filter id="filter0_d_6687_2236" x="0" y="0" width="188.017" height="40.9902" filterUnits="userSpaceOnUse" color-interpolation-filters="sRGB">
<feFlood flood-opacity="0" result="BackgroundImageFix"/>
<feColorMatrix in="SourceAlpha" type="matrix" values="0 0 0 0 0 0 0 0 0 0 0 0 0 0 0 0 0 0 127 0" result="hardAlpha"/>
<feOffset dy="4"/>
<feGaussianBlur stdDeviation="2"/>
<feComposite in2="hardAlpha" operator="out"/>
<feColorMatrix type="matrix" values="0 0 0 0 0 0 0 0 0 0 0 0 0 0 0 0 0 0 0.25 0"/>
<feBlend mode="normal" in2="BackgroundImageFix" result="effect1_dropShadow_6687_2236"/>
<feBlend mode="normal" in="SourceGraphic" in2="effect1_dropShadow_6687_2236" result="shape"/>
</filter>
</defs>
</svg>
