<svg width="24" height="24" viewBox="0 0 24 24" fill="none" xmlns="http://www.w3.org/2000/svg">
<path d="M4.5 18.8845V17.75H6.30775V9.852C6.30775 8.498 6.71867 7.29058 7.5405 6.22975C8.36217 5.16892 9.432 4.51125 10.75 4.25675V3.75C10.75 3.40283 10.8714 3.10767 11.1143 2.8645C11.3571 2.6215 11.6519 2.5 11.9988 2.5C12.3458 2.5 12.641 2.6215 12.8845 2.8645C13.1282 3.10767 13.25 3.40283 13.25 3.75V4.2615C14.568 4.51283 15.6378 5.16892 16.4595 6.22975C17.2813 7.29058 17.6923 8.498 17.6923 9.852V17.75H19.5V18.8845H4.5ZM11.9983 21.6923C11.5008 21.6923 11.0754 21.5153 10.7223 21.1613C10.3689 20.8073 10.1923 20.3817 10.1923 19.8845H13.8077C13.8077 20.3833 13.6306 20.8093 13.2762 21.1625C12.9219 21.5157 12.4959 21.6923 11.9983 21.6923ZM7.44225 17.75H16.5577V9.852C16.5577 8.58917 16.1138 7.51383 15.226 6.626C14.3382 5.73817 13.2628 5.29425 12 5.29425C10.7372 5.29425 9.66183 5.73817 8.774 6.626C7.88617 7.51383 7.44225 8.58917 7.44225 9.852V17.75Z" fill="black"/>
</svg>
