<svg width="181" height="33" viewBox="0 0 181 33" fill="none" xmlns="http://www.w3.org/2000/svg">
<path d="M26.1719 23.5462H15.83V19.8527H26.1719V23.5462Z" fill="white"/>
<path d="M44.3951 22.7613H44.6721L48.4579 8.4951C49.2582 5.41716 50.4894 3.30878 52.1515 2.16994C53.8136 1.03111 56.3221 0.46169 59.677 0.46169V32.78H55.3371V5.3556C54.5369 5.69418 53.9213 6.17126 53.4904 6.78685C53.0902 7.40243 52.7055 8.32581 52.3361 9.55699L46.565 29.3635H42.5021L36.6848 9.55699C36.3155 8.29503 35.9307 7.37165 35.5306 6.78685C35.1305 6.17126 34.5303 5.69418 33.73 5.3556V32.78H29.3901V0.46169C32.7451 0.46169 35.2382 1.0465 36.8695 2.21611C38.5316 3.35495 39.7782 5.44794 40.6092 8.4951L44.3951 22.7613Z" fill="white"/>
<path d="M68.2444 32.78H64.1353V12.4656C64.1353 9.14146 65.1972 6.30976 67.321 3.97054C69.4756 1.6313 72.2457 0.46169 75.6314 0.46169H86.2041V32.78H81.8643V4.52456H75.6314C73.3845 4.52456 71.584 5.18632 70.2297 6.50983C68.9062 7.83334 68.2444 9.94173 68.2444 12.835V16.7594C69.968 14.9434 72.4304 14.0354 75.6314 14.0354H79.8328V18.0983H75.6314C73.8462 18.0983 72.3842 18.3137 71.2454 18.7446C70.1373 19.1755 69.137 19.9142 68.2444 20.9607V32.78Z" fill="white"/>
<path d="M90.9164 32.78V11.7731C90.9164 8.0488 91.8244 5.15554 93.6403 3.09333C95.4871 1.03111 98.1034 0 101.489 0C104.906 0 107.522 0.831042 109.338 2.49313C111.185 4.15521 112.108 6.49444 112.108 9.51082C112.108 11.4499 111.646 13.0351 110.723 14.2662C109.799 15.4974 108.23 16.4669 106.014 17.1749V17.3595C108.322 18.2521 109.861 19.5295 110.63 21.1916C111.431 22.8229 111.831 25.5315 111.831 29.3173V32.78H107.491V26.8704C107.491 24.5311 106.829 22.7152 105.506 21.4224C104.182 20.0989 102.274 19.4372 99.7808 19.4372H97.2877V15.3743H99.9193C102.874 15.3743 104.921 14.7741 106.06 13.5737C107.199 12.3733 107.768 10.9421 107.768 9.27997C107.768 7.71023 107.199 6.44827 106.06 5.49411C104.952 4.53995 103.474 4.06287 101.628 4.06287C99.5038 4.06287 97.9033 4.66307 96.826 5.86347C95.7795 7.06386 95.2563 9.03374 95.2563 11.7731V32.78H90.9164Z" fill="white"/>
<path d="M135.879 27.0089V32.78H131.447V27.0089C131.447 23.5308 130.678 21.0838 129.139 19.668C127.631 18.2214 124.737 17.4827 120.459 17.4519V32.78H116.119V0.46169H120.459V13.6199C122.737 13.6814 124.091 13.743 124.522 13.8045L131.032 0.46169H135.741L128.446 14.8203C133.402 16.6362 135.879 20.6991 135.879 27.0089Z" fill="white"/>
<path d="M158.018 32.78H139.643V8.17191C139.643 5.89424 140.366 4.06287 141.813 2.6778C142.798 1.75442 143.906 1.15423 145.137 0.877211C146.368 0.600197 147.877 0.46169 149.662 0.46169H158.018V4.52456H149.062C145.676 4.52456 143.983 5.94041 143.983 8.77211V14.0354H154.648V18.0983H143.983V28.7171H158.018V32.78Z" fill="white"/>
<path d="M159.703 4.52456V0.46169H180.017V4.52456H172.03V32.78H167.69V4.52456H159.703Z" fill="white"/>
<path d="M4.01713 9.28V24.28C4.01713 27.28 6.01713 29.3635 9.01713 29.3635H13.5151L14.9124 32.9902H10.0187C8.23347 32.9902 6.72528 32.8517 5.49411 32.5747C4.26294 32.2977 3.15488 31.6975 2.16994 30.7741C0.723315 29.389 0 27.1719 0 25.28L3.8147e-05 8.17191C3.8147e-05 6.28 0.723354 4.06287 2.16998 2.6778C3.15492 1.75442 4.26297 1.15423 5.49415 0.877211C6.72532 0.600197 8.23351 0.46169 10.0187 0.46169H14.9126L13.5151 4.28H9.01713C6.01713 4.28 4.01713 6.28 4.01713 9.28Z" fill="white"/>
</svg>
