<svg width="70" height="13" viewBox="0 0 70 13" fill="none" xmlns="http://www.w3.org/2000/svg">
<path d="M10.177 9.18574H6.15553V7.74484H10.177V9.18574Z" fill="white"/>
<path d="M17.2631 8.87955H17.3708L18.843 3.31407C19.1542 2.11332 19.6329 1.29081 20.2792 0.846528C20.9255 0.402251 21.901 0.180112 23.2055 0.180112V12.788H21.518V2.0893C21.2068 2.22139 20.9674 2.4075 20.7999 2.64765C20.6443 2.8878 20.4947 3.24803 20.351 3.72833L18.1069 11.4552H16.5271L14.265 3.72833C14.1214 3.23602 13.9718 2.8758 13.8162 2.64765C13.6606 2.4075 13.4272 2.22139 13.116 2.0893V12.788H11.4284V0.180112C12.733 0.180112 13.7025 0.408255 14.3368 0.86454C14.9831 1.30882 15.4678 2.12533 15.791 3.31407L17.2631 8.87955Z" fill="white"/>
<path d="M26.537 12.788H24.9392V4.86304C24.9392 3.56623 25.3521 2.46154 26.1779 1.54897C27.0157 0.636397 28.0929 0.180112 29.4095 0.180112H33.5207V12.788H31.8331V1.7651H29.4095C28.5357 1.7651 27.8356 2.02326 27.309 2.53959C26.7943 3.05591 26.537 3.87842 26.537 5.00713V6.53808C27.2072 5.82964 28.1647 5.47542 29.4095 5.47542H31.0432V7.06041H29.4095C28.7153 7.06041 28.1468 7.14446 27.7039 7.31257C27.2731 7.48067 26.8841 7.76885 26.537 8.17711V12.788Z" fill="white"/>
<path d="M35.353 12.788V4.59287C35.353 3.13996 35.7061 2.01126 36.4123 1.20675C37.1304 0.402251 38.1477 0 39.4643 0C40.7928 0 41.8101 0.324203 42.5162 0.972608C43.2344 1.62101 43.5934 2.53358 43.5934 3.71032C43.5934 4.46679 43.4139 5.08518 43.0548 5.56548C42.6958 6.04578 42.0854 6.42401 41.2236 6.70019V6.77223C42.1213 7.12045 42.7197 7.61876 43.0189 8.26716C43.3301 8.90356 43.4857 9.96022 43.4857 11.4371V12.788H41.7981V10.4825C41.7981 9.56998 41.5408 8.86154 41.0262 8.35722C40.5115 7.8409 39.7695 7.58274 38.8 7.58274H37.8305V5.99775H38.8539C40.0028 5.99775 40.7988 5.7636 41.2416 5.29531C41.6844 4.82702 41.9059 4.26867 41.9059 3.62026C41.9059 3.00788 41.6844 2.51557 41.2416 2.14334C40.8107 1.77111 40.2362 1.58499 39.5181 1.58499C38.6923 1.58499 38.0699 1.81914 37.651 2.28743C37.2441 2.75572 37.0406 3.5242 37.0406 4.59287V12.788H35.353Z" fill="white"/>
<path d="M52.837 10.5366V12.788H51.1136V10.5366C51.1136 9.17974 50.8144 8.22514 50.2159 7.67279C49.6295 7.10844 48.5045 6.82026 46.8408 6.80825V12.788H45.1533V0.180112H46.8408V5.31332C47.7265 5.33733 48.2531 5.36135 48.4207 5.38536L50.952 0.180112H52.7832L49.9466 5.78161C51.8736 6.49005 52.837 8.07504 52.837 10.5366Z" fill="white"/>
<path d="M61.4458 12.788H54.3005V3.18799C54.3005 2.29944 54.5818 1.58499 55.1443 1.04465C55.5273 0.684428 55.9582 0.450281 56.4369 0.342214C56.9157 0.234146 57.5021 0.180112 58.1963 0.180112H61.4458V1.7651H57.9629C56.6464 1.7651 55.9881 2.31745 55.9881 3.42214V5.47542H60.1352V7.06041H55.9881V11.203H61.4458V12.788Z" fill="white"/>
<path d="M62.1007 1.7651V0.180112H70V1.7651H66.8941V12.788H65.2066V1.7651H62.1007Z" fill="white"/>
<path d="M1.56207 3.62027V9.47201C1.56207 10.6424 2.33977 11.4552 3.50633 11.4552H5.25539L5.79874 12.87H3.89578C3.2016 12.87 2.61514 12.816 2.1364 12.7079C1.65765 12.5998 1.22678 12.3657 0.843787 12.0055C0.281263 11.4651 0 10.6002 0 9.86212L1.48335e-05 3.18799C1.48335e-05 2.44993 0.281278 1.58499 0.843803 1.04465C1.2268 0.684428 1.65767 0.450281 2.13641 0.342214C2.61516 0.234146 3.20162 0.180112 3.8958 0.180112H5.79881L5.25539 1.66969H3.50633C2.33977 1.66969 1.56207 2.44993 1.56207 3.62027Z" fill="white"/>
</svg>
