<svg width="189" height="42" viewBox="0 0 189 42" fill="none" xmlns="http://www.w3.org/2000/svg">
<g filter="url(#filter0_d_6247_664)">
<path d="M30.6633 24.1562H20.3214V20.4627H30.6633V24.1562Z" fill="white"/>
<path d="M48.8865 23.3713H49.1635L52.9494 9.10508C53.7497 6.02715 54.9808 3.91876 56.6429 2.77993C58.305 1.64109 60.8135 1.07168 64.1685 1.07168V33.39H59.8286V5.96559C59.0283 6.30416 58.4127 6.78124 57.9818 7.39683C57.5817 8.01242 57.197 8.9358 56.8276 10.167L51.0565 29.9735H46.9936L41.1763 10.167C40.8069 8.90502 40.4222 7.98164 40.0221 7.39683C39.6219 6.78124 39.0217 6.30416 38.2215 5.96559V33.39H33.8816V1.07168C37.2365 1.07168 39.7297 1.65648 41.361 2.8261C43.023 3.96493 44.2696 6.05793 45.1007 9.10508L48.8865 23.3713Z" fill="white"/>
<path d="M72.7358 33.39H68.6268V13.0756C68.6268 9.75145 69.6887 6.91975 71.8125 4.58052C73.967 2.24129 76.7372 1.07168 80.1229 1.07168H90.6956V33.39H86.3557V5.13455H80.1229C77.876 5.13455 76.0754 5.7963 74.7211 7.11982C73.3976 8.44333 72.7358 10.5517 72.7358 13.445V17.3693C74.4595 15.5534 76.9218 14.6454 80.1229 14.6454H84.3243V18.7082H80.1229C78.3377 18.7082 76.8757 18.9237 75.7368 19.3546C74.6288 19.7855 73.6284 20.5242 72.7358 21.5707V33.39Z" fill="white"/>
<path d="M95.4078 33.39V12.3831C95.4078 8.65878 96.3158 5.76553 98.1318 3.70331C99.9786 1.64109 102.595 0.609985 105.981 0.609985C109.397 0.609985 112.013 1.44103 113.829 3.10311C115.676 4.7652 116.599 7.10443 116.599 10.1208C116.599 12.0599 116.138 13.645 115.214 14.8762C114.291 16.1074 112.721 17.0769 110.505 17.7849V17.9695C112.814 18.8621 114.352 20.1395 115.122 21.8016C115.922 23.4329 116.322 26.1414 116.322 29.9273V33.39H111.982V27.4804C111.982 25.1411 111.321 23.3251 109.997 22.0324C108.674 20.7089 106.765 20.0471 104.272 20.0471H101.779V15.9843H104.411C107.366 15.9843 109.412 15.3841 110.551 14.1837C111.69 12.9833 112.26 11.552 112.26 9.88996C112.26 8.32021 111.69 7.05826 110.551 6.1041C109.443 5.14994 107.966 4.67286 106.119 4.67286C103.995 4.67286 102.395 5.27306 101.317 6.47345C100.271 7.67385 99.7477 9.64372 99.7477 12.3831V33.39H95.4078Z" fill="white"/>
<path d="M140.371 27.6189V33.39H135.939V27.6189C135.939 24.1408 135.169 21.6938 133.63 20.278C132.122 18.8314 129.229 18.0927 124.951 18.0619V33.39H120.611V1.07168H124.951V14.2298C127.228 14.2914 128.583 14.353 129.013 14.4145L135.523 1.07168H140.232L132.938 15.4302C137.893 17.2462 140.371 21.3091 140.371 27.6189Z" fill="white"/>
<path d="M162.51 33.39H144.135V8.7819C144.135 6.50423 144.858 4.67286 146.305 3.28779C147.289 2.36441 148.398 1.76421 149.629 1.4872C150.86 1.21018 152.368 1.07168 154.153 1.07168H162.51V5.13455H153.553C150.167 5.13455 148.474 6.5504 148.474 9.3821V14.6454H159.139V18.7082H148.474V29.3271H162.51V33.39Z" fill="white"/>
<path d="M164.194 5.13455V1.07168H184.508V5.13455H176.521V33.39H172.181V5.13455H164.194Z" fill="white"/>
<path d="M8.50858 9.88998V24.89C8.50858 27.89 10.5086 29.9735 13.5086 29.9735H18.0066L19.4039 33.6002H14.5101C12.7249 33.6002 11.2167 33.4617 9.98557 33.1847C8.75439 32.9077 7.64634 32.3075 6.6614 31.3841C5.21477 29.999 4.49146 27.7819 4.49146 25.89L4.49149 8.7819C4.49149 6.88998 5.21481 4.67286 6.66144 3.28779C7.64638 2.36441 8.75443 1.76421 9.9856 1.4872C11.2168 1.21018 12.725 1.07168 14.5102 1.07168H19.4041L18.0066 4.88998H13.5086C10.5086 4.88998 8.50858 6.88998 8.50858 9.88998Z" fill="white"/>
</g>
<defs>
<filter id="filter0_d_6247_664" x="0.491455" y="0.609985" width="188.017" height="40.9902" filterUnits="userSpaceOnUse" color-interpolation-filters="sRGB">
<feFlood flood-opacity="0" result="BackgroundImageFix"/>
<feColorMatrix in="SourceAlpha" type="matrix" values="0 0 0 0 0 0 0 0 0 0 0 0 0 0 0 0 0 0 127 0" result="hardAlpha"/>
<feOffset dy="4"/>
<feGaussianBlur stdDeviation="2"/>
<feComposite in2="hardAlpha" operator="out"/>
<feColorMatrix type="matrix" values="0 0 0 0 0 0 0 0 0 0 0 0 0 0 0 0 0 0 0.25 0"/>
<feBlend mode="normal" in2="BackgroundImageFix" result="effect1_dropShadow_6247_664"/>
<feBlend mode="normal" in="SourceGraphic" in2="effect1_dropShadow_6247_664" result="shape"/>
</filter>
</defs>
</svg>
